# xmcd
#
# Track frame offsets:
#	150
#	19080
#	107625
#	199244
#	203293
#	222917
#	224228
#	243962
#	264550
#	275008
#	293019
#
# Disc length: 4077 seconds
#
# Revision: 1
# Processed by: cddbd v1.5PL3 Copyright (c) Steve Scherf et al.
# Submitted via: audiograbber 1.82.01
#
DISCID=ab0feb0b
DTITLE=Jimmy Hendrix - 1970-01-23 and 1970-05-14&15 Studio
DYEAR=1900
DGENRE=
TTITLE0=Jimmy Hendrix - Villanova Junction
TTITLE1=Jimmy Hendrix - Villanova Junction Jam Session
TTITLE2=Jimmy Hendrix - Jam Session - MLK
TTITLE3=Jimmy Hendrix - Warm Up
TTITLE4=Jimmy Hendrix - Lower Alcatraz
TTITLE5=Jimmy Hendrix - Castrophe (alt.) (Shake That Tit)
TTITLE6=Jimmy Hendrix - Freedom (no vocals)
TTITLE7=Jimmy Hendrix - Valleys Of Neptune (no vocals)
TTITLE8=Jimmy Hendrix - Catastrophe-Peter Gun Theme
TTITLE9=Jimmy Hendrix - Freedom
TTITLE10=Jimmy Hendrix - Lover Man
EXTD=
EXTT0=
EXTT1=
EXTT2=
EXTT3=
EXTT4=
EXTT5=
EXTT6=
EXTT7=
EXTT8=
EXTT9=
EXTT10=
PLAYORDER=
